<svg id="Capa_1" enable-background="new 0 0 512 512" height="512" viewBox="0 0 512 512" width="512" xmlns="http://www.w3.org/2000/svg"><g><g><g><path d="m229.753 392.93c-4.093-47.163-56.186-71.07-56.186-71.07l-43.023-49.475c-8.247-9.483-22.597-10.543-32.147-2.375-6.636 5.676-9.219 14.327-7.474 22.305l-.007-.009-31.884-113.44c-3.779-13.445-17.505-21.502-31.087-18.248-13.845 3.318-22.446 17.155-19.294 31.04l24.886 109.611c3.961 17.446 10.855 34.093 20.389 49.231l46.738 74.21c7.823 12.421 11.974 26.8 11.974 41.479v37.811h99.628v-34.104c0-11.277 2.717-22.388 7.97-32.367 5.346-10.158 11.14-25.901 9.517-44.599z" fill="#ffd6bd"/><g><path d="m130.637 504v-46.811c0-14.679-4.151-29.059-11.973-41.479l-46.738-74.21c-9.534-15.138-16.429-31.785-20.389-49.231l-24.886-109.611c-1.893-8.339.457-16.658 5.633-22.693-1.44.097-2.89.308-4.339.655-13.845 3.316-22.446 17.153-19.294 31.038l24.886 109.611c3.961 17.446 10.855 34.093 20.389 49.231l46.738 74.21c7.823 12.421 11.974 26.8 11.974 41.479v37.811z" fill="#f9c6aa"/></g><path d="m90.916 292.307.007.009c-1.746-7.977.837-16.629 7.474-22.305 4.217-3.607 9.37-5.408 14.52-5.486v-73.753c0-11.714-9.496-21.209-21.209-21.209-11.714 0-21.209 9.496-21.209 21.209v28.889z" fill="#edbca4"/><path d="m90.916 292.307.007.009c-1.746-7.977.837-16.629 7.474-22.305 4.217-3.607 9.37-5.408 14.52-5.486v-73.753c0-11.714-9.496-21.209-21.209-21.209-11.714 0-21.209 9.496-21.209 21.209v28.889z" fill="#edbca4"/><path d="m106.858 285.51c-4.347-5.133-6.018-11.623-5.197-17.807-1.132.669-2.231 1.424-3.264 2.308-9.574 8.188-10.73 22.573-2.588 32.186l40.922 48.315c8.304-6.459 9.554-18.536 2.747-26.558z" fill="#f9c6aa"/><path d="m90.916 292.307.007.009c-1.746-7.977.837-16.629 7.474-22.305 4.217-3.607 9.37-5.408 14.52-5.486v-73.753c0-11.714-9.496-21.209-21.209-21.209-11.714 0-21.209 9.496-21.209 21.209v28.889z" fill="#edbca4"/><path d="m90.916 292.307.007.009c-1.746-7.977.837-16.629 7.474-22.305 4.217-3.607 9.37-5.408 14.52-5.486v-73.753c0-11.714-9.496-21.209-21.209-21.209-11.714 0-21.209 9.496-21.209 21.209v28.889z" fill="#edbca4"/><path d="m112.916 249.527c-4.211.039-8.358.777-12.277 2.161-2.735.966-5.715-.555-6.5-3.347l-19.652-69.919c-2.501 3.481-3.99 7.738-3.99 12.351v28.889l20.418 72.645.007.009c-1.746-7.977.837-16.629 7.474-22.305 4.217-3.607 9.37-5.408 14.52-5.486z" fill="#eaab92"/><path d="m484.055 160.619c-13.582-3.254-27.308 4.803-31.087 18.248l-31.884 113.44-.007.009c1.746-7.978-.837-16.629-7.474-22.305-9.55-8.168-23.901-7.108-32.147 2.375l-43.023 49.475s-52.093 23.907-56.186 71.07c-1.623 18.697 4.171 34.44 9.519 44.599 5.253 9.979 7.97 21.09 7.97 32.367v34.103h99.628v-37.811c0-14.679 4.151-29.059 11.974-41.479l46.738-74.21c9.534-15.138 16.429-31.785 20.389-49.231l24.886-109.611c3.151-13.885-5.451-27.722-19.296-31.039z" fill="#ffd6bd"/><g><path d="m381.363 504v-46.811c0-14.679 4.151-29.059 11.974-41.479l46.738-74.21c9.534-15.138 16.428-31.785 20.389-49.231l24.886-109.611c1.893-8.339-.457-16.658-5.633-22.693 1.44.097 2.89.308 4.339.655 13.845 3.318 22.447 17.154 19.295 31.039l-24.886 109.611c-3.961 17.446-10.855 34.093-20.389 49.231l-46.738 74.21c-7.823 12.421-11.974 26.8-11.974 41.479v37.81z" fill="#f9c6aa"/></g><path d="m421.084 292.307-.007.009c1.746-7.977-.837-16.629-7.474-22.305-4.217-3.607-9.37-5.408-14.52-5.486v-73.753c0-11.714 9.496-21.209 21.209-21.209 11.714 0 21.209 9.496 21.209 21.209v28.889z" fill="#edbca4"/><path d="m421.084 292.307-.007.009c1.746-7.977-.837-16.629-7.474-22.305-4.217-3.607-9.37-5.408-14.52-5.486v-73.753c0-11.714 9.496-21.209 21.209-21.209 11.714 0 21.209 9.496 21.209 21.209v28.889z" fill="#edbca4"/><path d="m405.142 285.51c4.347-5.133 6.018-11.623 5.198-17.807 1.132.669 2.231 1.424 3.264 2.308 9.574 8.188 10.73 22.573 2.589 32.186l-40.922 48.315c-8.304-6.459-9.554-18.536-2.747-26.558z" fill="#f9c6aa"/><path d="m421.084 292.307-.007.009c1.746-7.977-.837-16.629-7.474-22.305-4.217-3.607-9.37-5.408-14.52-5.486v-73.753c0-11.714 9.496-21.209 21.209-21.209 11.714 0 21.209 9.496 21.209 21.209v28.889z" fill="#edbca4"/><path d="m421.084 292.307-.007.009c1.746-7.977-.837-16.629-7.474-22.305-4.217-3.607-9.37-5.408-14.52-5.486v-73.753c0-11.714 9.496-21.209 21.209-21.209 11.714 0 21.209 9.496 21.209 21.209v28.889z" fill="#edbca4"/><path d="m399.084 249.527c4.211.039 8.358.777 12.277 2.161 2.735.966 5.715-.555 6.5-3.347l19.652-69.919c2.501 3.481 3.991 7.738 3.991 12.351v28.889l-20.418 72.645-.007.009c1.746-7.977-.837-16.629-7.474-22.305-4.217-3.607-9.37-5.408-14.52-5.486v-14.998z" fill="#eaab92"/></g><g><path d="m256 49.554c-17.26-55.076-126.752-64.008-139.121 26.408-14.069 102.839 139.121 177.317 139.121 177.317s153.19-74.479 139.121-177.318c-12.368-90.415-121.861-81.483-139.121-26.407z" fill="#da4a54"/></g><path d="m253.721 234.13c-17.469-8.983-129.688-69.81-137.339-153.793-9.235 100.57 139.618 172.942 139.618 172.942s148.853-72.373 139.617-172.942c-7.65 83.983-119.87 144.81-137.339 153.793-1.433.737-3.123.737-4.557 0z" fill="#d82e3d"/></g><g><path d="m204.97 334.224c-11.637-10.207-22.881-16.297-26.899-18.319l-42.106-48.418c-4.295-4.939-9.869-8.148-15.819-9.576v-67.266c0-15.862-12.905-28.766-28.766-28.766-10.977 0-20.534 6.182-25.382 15.245l-.124-.442c-4.898-17.429-22.527-27.773-40.134-23.558-17.785 4.261-28.959 22.237-24.91 40.07l24.935 109.826c4.168 18.356 11.367 35.74 21.4 51.668l21.304 33.824c2.226 3.541 6.905 4.547 10.364 2.354 3.512-2.212 4.566-6.852 2.354-10.363l-21.305-33.823c-9.123-14.484-15.67-30.293-19.46-46.986l-24.936-109.826c-2.236-9.848 3.935-19.774 13.755-22.127 9.727-2.33 19.458 3.385 22.163 13.009l31.947 113.662c.012.042.029.081.041.123 1.066 4.512 3.171 8.843 6.361 12.61l41.004 48.409c2.681 3.166 7.423 3.56 10.591.878 3.167-2.683 3.56-7.424.878-10.591l-41.003-48.41c-5.469-6.456-4.687-16.182 1.744-21.681 6.409-5.481 16.123-4.762 21.656 1.599l43.109 49.572c.696.8 1.564 1.449 2.526 1.894.483.223 48.29 22.798 51.956 65.033 1.478 17.034-3.916 31.446-8.701 40.536-5.79 11-8.851 23.424-8.851 35.93v26.656h-84.796v-30.37c0-16.146-4.549-31.903-13.154-45.566l-9.505-15.091c-2.211-3.511-6.851-4.565-10.364-2.354-3.512 2.212-4.566 6.852-2.354 10.363l9.505 15.091c7.092 11.261 10.841 24.248 10.841 37.556v37.885c0 4.15 3.365 7.515 7.515 7.515h99.826c4.15 0 7.515-3.365 7.515-7.515v-34.171c0-10.077 2.462-20.081 7.121-28.93 5.723-10.871 12.168-28.169 10.375-48.836-1.847-21.288-12.988-41.456-32.217-58.323zm-111.772-69.896c-.749.64-1.455 1.311-2.126 2.007l-13.43-47.78v-27.909c0-7.574 6.162-13.736 13.737-13.736 7.574 0 13.736 6.162 13.736 13.736v67.426c-4.27 1.13-8.352 3.207-11.917 6.256z"/><path d="m486.261 153.125c-17.612-4.221-35.235 6.129-40.135 23.558l-.124.441c-4.848-9.063-14.405-15.244-25.381-15.244-15.862 0-28.766 12.904-28.766 28.766v67.266c-5.95 1.427-11.523 4.636-15.819 9.575l-42.106 48.418c-4.019 2.021-15.263 8.112-26.899 18.319-19.23 16.866-30.37 37.035-32.217 58.325-1.795 20.667 4.651 37.965 10.374 48.836 4.659 8.849 7.121 18.853 7.121 28.93v34.171c0 4.15 3.364 7.515 7.515 7.515h99.827c4.151 0 7.515-3.365 7.515-7.515v-37.886c0-13.309 3.749-26.296 10.841-37.556l46.831-74.354c10.033-15.928 17.232-33.312 21.4-51.668l5.101-22.466c.919-4.047-1.616-8.073-5.665-8.992-4.043-.92-8.073 1.618-8.992 5.664l-5.101 22.466c-3.791 16.694-10.338 32.502-19.462 46.986l-46.831 74.355c-8.604 13.662-13.152 29.418-13.152 45.565v30.37h-84.797v-26.656c0-12.507-3.061-24.931-8.851-35.93-4.786-9.09-10.179-23.501-8.701-40.536 3.665-42.235 51.473-64.81 51.945-65.029.971-.445 1.836-1.093 2.536-1.899l43.109-49.572c5.534-6.364 15.247-7.079 21.656-1.599 6.43 5.499 7.213 15.225 1.745 21.681l-41.004 48.409c-2.683 3.167-2.29 7.909.877 10.592 3.169 2.683 7.909 2.289 10.591-.877l41.005-48.41c3.198-3.776 5.304-8.119 6.368-12.643.009-.031.025-.058.033-.089l31.946-113.662c2.707-9.624 12.444-15.335 22.164-13.009 9.82 2.353 15.992 12.279 13.756 22.127l-13.178 58.04c-.919 4.048 1.617 8.073 5.665 8.992 4.044.918 8.073-1.617 8.991-5.664l13.178-58.04c4.051-17.834-7.125-35.81-24.909-40.071zm-79.377 104.947v-67.426c0-7.574 6.162-13.736 13.736-13.736 7.575 0 13.736 6.162 13.736 13.736v27.907l-13.43 47.781c-3.819-4.007-8.902-6.929-14.042-8.262z"/><path d="m386.072 150.598c14.576-25.24 20.219-50.813 16.772-76.007-3.072-22.451-12.243-41.211-26.524-54.254-12.68-11.579-28.954-18.505-47.06-20.027-17.102-1.437-34.528 2.154-49.077 10.111-10.107 5.527-18.357 12.958-24.183 21.63-5.826-8.672-14.076-16.103-24.182-21.63-14.55-7.957-31.979-11.548-49.077-10.111-18.107 1.522-34.38 8.448-47.06 20.027-14.281 13.043-23.454 31.804-26.525 54.254-1.497 10.938-1.277 22.076.653 33.104.716 4.088 4.611 6.825 8.698 6.106 4.088-.716 6.822-4.61 6.106-8.698-1.663-9.496-1.853-19.076-.567-28.475 4.879-35.665 27.291-58.596 59.953-61.342 29.717-2.497 57.594 13.026 64.829 36.112 1.914 6.893 12.429 6.891 14.342 0 7.234-23.086 35.099-38.612 64.829-36.112 32.662 2.746 55.073 25.677 59.952 61.342 2.978 21.769-2.009 44.083-14.82 66.323-10.515 18.252-26.269 36.501-46.823 54.24-29.375 25.352-60.339 42.429-70.306 47.644-16.979-8.904-94.962-52.365-122.842-112.889-1.736-3.769-6.199-5.419-9.969-3.681-3.77 1.736-5.418 6.2-3.682 9.969 14.117 30.648 40.866 60.48 79.503 88.667 28.537 20.819 52.686 32.639 53.7 33.132 2.074 1.009 4.497 1.009 6.572 0 1.603-.779 39.677-19.449 76.605-51.257 21.898-18.862 38.782-38.436 50.183-58.178z"/></g></g></svg>